<svg xmlns="http://www.w3.org/2000/svg" width="820" height="314" viewBox="0 0 820 314" role="img" aria-label="Language Mix stats">
<defs>
  <linearGradient id="bg" x1="0" x2="0" y1="0" y2="1">
    <stop offset="0%" stop-color="#0b0f16"/>
    <stop offset="100%" stop-color="#111827"/>
  </linearGradient>
  <filter id="shadow" x="-10%" y="-10%" width="120%" height="120%">
    <feDropShadow dx="0" dy="8" stdDeviation="10" flood-color="#000000" flood-opacity="0.35"/>
  </filter>
  <filter id="softGlow" x="-20%" y="-20%" width="140%" height="140%">
    <feDropShadow dx="0" dy="0" stdDeviation="6" flood-color="#0ea5e9" flood-opacity="0.12"/>
  </filter>
</defs>
<style>
  .title { font: 600 18px "Source Sans 3", "Segoe UI", Tahoma, sans-serif; fill: #e2e8f0; }
  .subtitle { font: 500 12px "Source Sans 3", "Segoe UI", Tahoma, sans-serif; fill: #94a3b8; }
  .label { font: 500 13px "Source Sans 3", "Segoe UI", Tahoma, sans-serif; fill: #e5e7eb; }
  .value { font: 600 22px "Source Sans 3", "Segoe UI", Tahoma, sans-serif; fill: #f8fafc; }
  .muted { fill: #94a3b8; }
</style>
<rect x="1" y="1" width="818" height="312" rx="16" fill="url(#bg)" stroke="#1f2937" filter="url(#shadow)"/>
<text x="28" y="42" class="title">Language Mix</text>
<text x="28" y="60" class="subtitle">Auto-updated daily</text>
<circle cx="650" cy="161" r="78" fill="none" stroke="#1f2937" stroke-width="16"/>
<circle cx="650" cy="161" r="88" fill="none" stroke="#0f172a" stroke-width="1" opacity="0.6"/>
<line x1="28" y1="76" x2="792" y2="76" stroke="#1f2937" stroke-width="1"/>
<circle cx="650" cy="161" r="78" fill="none" stroke="#3b82f6" stroke-width="16" stroke-dasharray="373.98 116.10" stroke-dashoffset="-0.00" transform="rotate(-90 650 161)" stroke-linecap="round" filter="url(#softGlow)"/>
<circle cx="650" cy="161" r="78" fill="none" stroke="#22c55e" stroke-width="16" stroke-dasharray="47.43 442.66" stroke-dashoffset="-373.98" transform="rotate(-90 650 161)" stroke-linecap="round" filter="url(#softGlow)"/>
<circle cx="650" cy="161" r="78" fill="none" stroke="#f59e0b" stroke-width="16" stroke-dasharray="33.65 456.44" stroke-dashoffset="-421.42" transform="rotate(-90 650 161)" stroke-linecap="round" filter="url(#softGlow)"/>
<circle cx="650" cy="161" r="78" fill="none" stroke="#f43f5e" stroke-width="16" stroke-dasharray="26.98 463.11" stroke-dashoffset="-455.07" transform="rotate(-90 650 161)" stroke-linecap="round" filter="url(#softGlow)"/>
<circle cx="650" cy="161" r="78" fill="none" stroke="#8b5cf6" stroke-width="16" stroke-dasharray="3.96 486.13" stroke-dashoffset="-482.04" transform="rotate(-90 650 161)" stroke-linecap="round" filter="url(#softGlow)"/>
<circle cx="650" cy="161" r="78" fill="none" stroke="#38bdf8" stroke-width="16" stroke-dasharray="1.63 488.46" stroke-dashoffset="-486.00" transform="rotate(-90 650 161)" stroke-linecap="round" filter="url(#softGlow)"/>
<circle cx="650" cy="161" r="78" fill="none" stroke="#10b981" stroke-width="16" stroke-dasharray="1.32 488.76" stroke-dashoffset="-487.64" transform="rotate(-90 650 161)" stroke-linecap="round" filter="url(#softGlow)"/>
<circle cx="650" cy="161" r="78" fill="none" stroke="#fb923c" stroke-width="16" stroke-dasharray="1.05 489.04" stroke-dashoffset="-488.96" transform="rotate(-90 650 161)" stroke-linecap="round" filter="url(#softGlow)"/>
<circle cx="650" cy="161" r="78" fill="none" stroke="#9ca3af" stroke-width="16" stroke-dasharray="0.08 490.01" stroke-dashoffset="-490.01" transform="rotate(-90 650 161)" stroke-linecap="round" filter="url(#softGlow)"/>
<circle cx="32" cy="88" r="5" fill="#3b82f6"/>
<text x="48" y="92" class="label">Jupyter Notebook</text>
<text x="320" y="92" class="label muted" text-anchor="end">76.3%</text>
<circle cx="32" cy="110" r="5" fill="#22c55e"/>
<text x="48" y="114" class="label">C++</text>
<text x="320" y="114" class="label muted" text-anchor="end">9.7%</text>
<circle cx="32" cy="132" r="5" fill="#f59e0b"/>
<text x="48" y="136" class="label">C</text>
<text x="320" y="136" class="label muted" text-anchor="end">6.9%</text>
<circle cx="32" cy="154" r="5" fill="#f43f5e"/>
<text x="48" y="158" class="label">Python</text>
<text x="320" y="158" class="label muted" text-anchor="end">5.5%</text>
<circle cx="32" cy="176" r="5" fill="#8b5cf6"/>
<text x="48" y="180" class="label">Makefile</text>
<text x="320" y="180" class="label muted" text-anchor="end">0.8%</text>
<circle cx="32" cy="198" r="5" fill="#38bdf8"/>
<text x="48" y="202" class="label">HTML</text>
<text x="320" y="202" class="label muted" text-anchor="end">0.3%</text>
<circle cx="32" cy="220" r="5" fill="#10b981"/>
<text x="48" y="224" class="label">Shell</text>
<text x="320" y="224" class="label muted" text-anchor="end">0.3%</text>
<circle cx="32" cy="242" r="5" fill="#fb923c"/>
<text x="48" y="246" class="label">JavaScript</text>
<text x="320" y="246" class="label muted" text-anchor="end">0.2%</text>
<circle cx="32" cy="264" r="5" fill="#9ca3af"/>
<text x="48" y="268" class="label">Other</text>
<text x="320" y="268" class="label muted" text-anchor="end">0.0%</text>
<text x="650" y="157" class="value" text-anchor="middle">76.3%</text>
<text x="650" y="177" class="label muted" text-anchor="middle">Jupyter Not...</text>
</svg>