<svg xmlns="http://www.w3.org/2000/svg" width="820" height="292" viewBox="0 0 820 292" role="img" aria-label="Language Mix stats">
<defs>
  <linearGradient id="bg" x1="0" x2="0" y1="0" y2="1">
    <stop offset="0%" stop-color="#0b0f16"/>
    <stop offset="100%" stop-color="#111827"/>
  </linearGradient>
  <filter id="shadow" x="-10%" y="-10%" width="120%" height="120%">
    <feDropShadow dx="0" dy="8" stdDeviation="10" flood-color="#000000" flood-opacity="0.35"/>
  </filter>
  <filter id="softGlow" x="-20%" y="-20%" width="140%" height="140%">
    <feDropShadow dx="0" dy="0" stdDeviation="6" flood-color="#0ea5e9" flood-opacity="0.12"/>
  </filter>
</defs>
<style>
  .title { font: 600 18px "Source Sans 3", "Segoe UI", Tahoma, sans-serif; fill: #e2e8f0; }
  .subtitle { font: 500 12px "Source Sans 3", "Segoe UI", Tahoma, sans-serif; fill: #94a3b8; }
  .label { font: 500 13px "Source Sans 3", "Segoe UI", Tahoma, sans-serif; fill: #e5e7eb; }
  .value { font: 600 22px "Source Sans 3", "Segoe UI", Tahoma, sans-serif; fill: #f8fafc; }
  .muted { fill: #94a3b8; }
</style>
<rect x="1" y="1" width="818" height="290" rx="16" fill="url(#bg)" stroke="#1f2937" filter="url(#shadow)"/>
<text x="28" y="42" class="title">Language Mix</text>
<text x="28" y="60" class="subtitle">Auto-updated daily</text>
<circle cx="650" cy="150" r="78" fill="none" stroke="#1f2937" stroke-width="16"/>
<circle cx="650" cy="150" r="88" fill="none" stroke="#0f172a" stroke-width="1" opacity="0.6"/>
<line x1="28" y1="76" x2="792" y2="76" stroke="#1f2937" stroke-width="1"/>
<circle cx="650" cy="150" r="78" fill="none" stroke="#3b82f6" stroke-width="16" stroke-dasharray="200.09 290.00" stroke-dashoffset="-0.00" transform="rotate(-90 650 150)" stroke-linecap="round" filter="url(#softGlow)"/>
<circle cx="650" cy="150" r="78" fill="none" stroke="#22c55e" stroke-width="16" stroke-dasharray="141.95 348.13" stroke-dashoffset="-200.09" transform="rotate(-90 650 150)" stroke-linecap="round" filter="url(#softGlow)"/>
<circle cx="650" cy="150" r="78" fill="none" stroke="#f59e0b" stroke-width="16" stroke-dasharray="114.11 375.98" stroke-dashoffset="-342.05" transform="rotate(-90 650 150)" stroke-linecap="round" filter="url(#softGlow)"/>
<circle cx="650" cy="150" r="78" fill="none" stroke="#f43f5e" stroke-width="16" stroke-dasharray="16.71 473.38" stroke-dashoffset="-456.15" transform="rotate(-90 650 150)" stroke-linecap="round" filter="url(#softGlow)"/>
<circle cx="650" cy="150" r="78" fill="none" stroke="#8b5cf6" stroke-width="16" stroke-dasharray="6.88 483.21" stroke-dashoffset="-472.86" transform="rotate(-90 650 150)" stroke-linecap="round" filter="url(#softGlow)"/>
<circle cx="650" cy="150" r="78" fill="none" stroke="#38bdf8" stroke-width="16" stroke-dasharray="5.58 484.50" stroke-dashoffset="-479.75" transform="rotate(-90 650 150)" stroke-linecap="round" filter="url(#softGlow)"/>
<circle cx="650" cy="150" r="78" fill="none" stroke="#10b981" stroke-width="16" stroke-dasharray="4.42 485.67" stroke-dashoffset="-485.33" transform="rotate(-90 650 150)" stroke-linecap="round" filter="url(#softGlow)"/>
<circle cx="650" cy="150" r="78" fill="none" stroke="#fb923c" stroke-width="16" stroke-dasharray="0.34 489.75" stroke-dashoffset="-489.75" transform="rotate(-90 650 150)" stroke-linecap="round" filter="url(#softGlow)"/>
<circle cx="32" cy="88" r="5" fill="#3b82f6"/>
<text x="48" y="92" class="label">C++</text>
<text x="320" y="92" class="label muted" text-anchor="end">40.8%</text>
<circle cx="32" cy="110" r="5" fill="#22c55e"/>
<text x="48" y="114" class="label">C</text>
<text x="320" y="114" class="label muted" text-anchor="end">29.0%</text>
<circle cx="32" cy="132" r="5" fill="#f59e0b"/>
<text x="48" y="136" class="label">Python</text>
<text x="320" y="136" class="label muted" text-anchor="end">23.3%</text>
<circle cx="32" cy="154" r="5" fill="#f43f5e"/>
<text x="48" y="158" class="label">Makefile</text>
<text x="320" y="158" class="label muted" text-anchor="end">3.4%</text>
<circle cx="32" cy="176" r="5" fill="#8b5cf6"/>
<text x="48" y="180" class="label">HTML</text>
<text x="320" y="180" class="label muted" text-anchor="end">1.4%</text>
<circle cx="32" cy="198" r="5" fill="#38bdf8"/>
<text x="48" y="202" class="label">Shell</text>
<text x="320" y="202" class="label muted" text-anchor="end">1.1%</text>
<circle cx="32" cy="220" r="5" fill="#10b981"/>
<text x="48" y="224" class="label">JavaScript</text>
<text x="320" y="224" class="label muted" text-anchor="end">0.9%</text>
<circle cx="32" cy="242" r="5" fill="#fb923c"/>
<text x="48" y="246" class="label">Docker</text>
<text x="320" y="246" class="label muted" text-anchor="end">0.1%</text>
<text x="650" y="146" class="value" text-anchor="middle">40.8%</text>
<text x="650" y="166" class="label muted" text-anchor="middle">C++</text>
</svg>