<svg xmlns="http://www.w3.org/2000/svg" width="820" height="314" viewBox="0 0 820 314" role="img" aria-label="Language Mix stats">
<defs>
  <linearGradient id="bg" x1="0" x2="0" y1="0" y2="1">
    <stop offset="0%" stop-color="#ffffff"/>
    <stop offset="100%" stop-color="#f8fafc"/>
  </linearGradient>
  <filter id="shadow" x="-10%" y="-10%" width="120%" height="120%">
    <feDropShadow dx="0" dy="6" stdDeviation="8" flood-color="#0f172a" flood-opacity="0.12"/>
  </filter>
</defs>
<style>
  .title { font: 600 18px "Source Sans 3", "Segoe UI", Tahoma, sans-serif; fill: #0f172a; }
  .subtitle { font: 500 12px "Source Sans 3", "Segoe UI", Tahoma, sans-serif; fill: #64748b; }
  .label { font: 500 13px "Source Sans 3", "Segoe UI", Tahoma, sans-serif; fill: #1f2937; }
  .value { font: 600 22px "Source Sans 3", "Segoe UI", Tahoma, sans-serif; fill: #0f172a; }
  .muted { fill: #94a3b8; }
</style>
<rect x="1" y="1" width="818" height="312" rx="16" fill="url(#bg)" stroke="#e2e8f0" filter="url(#shadow)"/>
<text x="28" y="42" class="title">Language Mix</text>
<text x="28" y="60" class="subtitle">Auto-updated daily</text>
<circle cx="650" cy="161" r="78" fill="none" stroke="#e2e8f0" stroke-width="16"/>
<circle cx="650" cy="161" r="78" fill="none" stroke="#2563eb" stroke-width="16" stroke-dasharray="374.10 115.99" stroke-dashoffset="-0.00" transform="rotate(-90 650 161)"/>
<circle cx="650" cy="161" r="78" fill="none" stroke="#0f766e" stroke-width="16" stroke-dasharray="47.45 442.64" stroke-dashoffset="-374.10" transform="rotate(-90 650 161)"/>
<circle cx="650" cy="161" r="78" fill="none" stroke="#f59e0b" stroke-width="16" stroke-dasharray="33.66 456.43" stroke-dashoffset="-421.55" transform="rotate(-90 650 161)"/>
<circle cx="650" cy="161" r="78" fill="none" stroke="#e11d48" stroke-width="16" stroke-dasharray="26.84 463.25" stroke-dashoffset="-455.21" transform="rotate(-90 650 161)"/>
<circle cx="650" cy="161" r="78" fill="none" stroke="#7c3aed" stroke-width="16" stroke-dasharray="3.96 486.13" stroke-dashoffset="-482.04" transform="rotate(-90 650 161)"/>
<circle cx="650" cy="161" r="78" fill="none" stroke="#0284c7" stroke-width="16" stroke-dasharray="1.63 488.46" stroke-dashoffset="-486.00" transform="rotate(-90 650 161)"/>
<circle cx="650" cy="161" r="78" fill="none" stroke="#16a34a" stroke-width="16" stroke-dasharray="1.32 488.76" stroke-dashoffset="-487.64" transform="rotate(-90 650 161)"/>
<circle cx="650" cy="161" r="78" fill="none" stroke="#f97316" stroke-width="16" stroke-dasharray="1.05 489.04" stroke-dashoffset="-488.96" transform="rotate(-90 650 161)"/>
<circle cx="650" cy="161" r="78" fill="none" stroke="#9ca3af" stroke-width="16" stroke-dasharray="0.08 490.01" stroke-dashoffset="-490.01" transform="rotate(-90 650 161)"/>
<circle cx="32" cy="88" r="5" fill="#2563eb"/>
<text x="48" y="92" class="label">Jupyter Notebook</text>
<text x="320" y="92" class="label muted" text-anchor="end">76.3%</text>
<circle cx="32" cy="110" r="5" fill="#0f766e"/>
<text x="48" y="114" class="label">C++</text>
<text x="320" y="114" class="label muted" text-anchor="end">9.7%</text>
<circle cx="32" cy="132" r="5" fill="#f59e0b"/>
<text x="48" y="136" class="label">C</text>
<text x="320" y="136" class="label muted" text-anchor="end">6.9%</text>
<circle cx="32" cy="154" r="5" fill="#e11d48"/>
<text x="48" y="158" class="label">Python</text>
<text x="320" y="158" class="label muted" text-anchor="end">5.5%</text>
<circle cx="32" cy="176" r="5" fill="#7c3aed"/>
<text x="48" y="180" class="label">Makefile</text>
<text x="320" y="180" class="label muted" text-anchor="end">0.8%</text>
<circle cx="32" cy="198" r="5" fill="#0284c7"/>
<text x="48" y="202" class="label">HTML</text>
<text x="320" y="202" class="label muted" text-anchor="end">0.3%</text>
<circle cx="32" cy="220" r="5" fill="#16a34a"/>
<text x="48" y="224" class="label">Shell</text>
<text x="320" y="224" class="label muted" text-anchor="end">0.3%</text>
<circle cx="32" cy="242" r="5" fill="#f97316"/>
<text x="48" y="246" class="label">JavaScript</text>
<text x="320" y="246" class="label muted" text-anchor="end">0.2%</text>
<circle cx="32" cy="264" r="5" fill="#9ca3af"/>
<text x="48" y="268" class="label">Other</text>
<text x="320" y="268" class="label muted" text-anchor="end">0.0%</text>
<text x="650" y="157" class="value" text-anchor="middle">76.3%</text>
<text x="650" y="177" class="label muted" text-anchor="middle">Jupyter Not...</text>
</svg>